<?xml version="1.0" encoding="UTF-8"?>
<svg width="138px" height="36px" viewBox="0 0 138 36" version="1.1" xmlns="http://www.w3.org/2000/svg" xmlns:xlink="http://www.w3.org/1999/xlink">
    <!-- Generator: Sketch 48.1 (47250) - http://www.bohemiancoding.com/sketch -->
    <title>Culture saves lives</title>
    <desc>Created with Sketch.</desc>
    <defs></defs>
    <g id="Desktop-HD-Copy" stroke="none" stroke-width="1" fill="none" fill-rule="evenodd" transform="translate(-269.000000, -401.000000)">
        <g id="Culture-saves-lives" transform="translate(269.000000, 401.000000)" fill="#000000" fill-rule="nonzero">
            <path d="M110.171345,11.369906 C110.171345,11.4122257 110.171345,11.4545455 110.171345,11.4545455 C110.090643,11.4545455 110.130994,11.3275862 110.090643,11.2429467 C110.050292,11.2429467 110.050292,11.2429467 110.050292,11.2429467 C109.969591,11.200627 109.808187,11.200627 109.727485,11.2852665 C109.727485,11.369906 109.687135,11.369906 109.727485,11.4545455 C109.646784,11.4122257 109.646784,11.2429467 109.566082,11.2429467 C109.525731,11.2429467 109.525731,11.2852665 109.525731,11.3275862 C109.48538,11.3275862 109.48538,11.2429467 109.48538,11.200627 C109.445029,11.1583072 109.404678,11.200627 109.364327,11.200627 C109.364327,11.2429467 109.323977,11.2429467 109.323977,11.2852665 C109.283626,11.2429467 109.243275,11.3275862 109.202924,11.3275862 C109.202924,11.2852665 109.243275,11.2429467 109.243275,11.200627 C109.243275,11.1159875 109.162573,11.1159875 109.081871,11.0736677 C109.081871,11.031348 109.122222,10.9467085 109.081871,10.9467085 C109.04152,10.9467085 108.920468,11.031348 108.839766,11.0736677 C108.799415,11.1159875 108.799415,11.1159875 108.799415,11.1583072 C108.799415,11.1583072 108.759064,11.1159875 108.799415,11.1583072 C108.799415,11.1583072 108.799415,11.1159875 108.799415,11.1159875 C108.880117,11.0736677 108.960819,10.9467085 109.081871,10.9043887 C109.081871,10.862069 109.04152,10.862069 109.04152,10.862069 C109.00117,10.862069 108.960819,10.9467085 108.920468,10.9043887 C108.880117,10.8197492 109.00117,10.862069 109.00117,10.8197492 C108.960819,10.7774295 109.00117,10.7351097 109.00117,10.69279 C108.920468,10.69279 108.880117,10.7351097 108.799415,10.7351097 C108.839766,10.69279 108.920468,10.69279 108.960819,10.6504702 C108.960819,10.6081505 108.920468,10.6081505 108.880117,10.6081505 C108.880117,10.5658307 108.920468,10.5658307 108.920468,10.5658307 C108.920468,10.5658307 108.920468,10.523511 108.920468,10.523511 C108.880117,10.523511 108.799415,10.523511 108.799415,10.4811912 C108.839766,10.4811912 108.920468,10.4811912 108.920468,10.4388715 C108.920468,10.354232 108.718713,10.4388715 108.678363,10.3965517 C108.718713,10.3119122 108.920468,10.3965517 108.880117,10.2695925 C108.880117,10.2695925 108.839766,10.2272727 108.839766,10.2272727 C108.880117,10.1426332 108.960819,10.1426332 108.960819,10.015674 C108.960819,10.015674 108.920468,9.97335423 108.920468,9.97335423 C108.920468,9.93103448 108.960819,9.93103448 108.920468,9.88871473 C108.880117,9.84639498 108.799415,9.80407524 108.759064,9.71943574 C108.759064,9.71943574 108.759064,9.71943574 108.759064,9.71943574 C108.839766,9.76175549 108.880117,9.84639498 108.960819,9.84639498 C109.00117,9.84639498 109.04152,9.76175549 109.081871,9.76175549 C109.04152,9.71943574 109.04152,9.67711599 109.04152,9.55015674 C109.081871,9.50783699 109.122222,9.55015674 109.162573,9.59247649 C109.162573,9.59247649 109.202924,9.59247649 109.202924,9.55015674 C109.243275,9.55015674 109.243275,9.55015674 109.283626,9.55015674 C109.323977,9.42319749 109.202924,9.38087774 109.243275,9.29623824 C109.283626,9.29623824 109.283626,9.38087774 109.323977,9.42319749 C109.323977,9.42319749 109.364327,9.42319749 109.323977,9.38087774 C109.364327,9.46551724 109.404678,9.42319749 109.445029,9.38087774 C109.445029,9.38087774 109.445029,9.42319749 109.48538,9.42319749 C109.525731,9.42319749 109.525731,9.42319749 109.525731,9.42319749 C109.525731,9.33855799 109.525731,9.33855799 109.525731,9.2539185 C109.566082,9.2539185 109.525731,9.29623824 109.566082,9.29623824 C109.606433,9.21159875 109.566082,9.12695925 109.566082,9 C109.566082,9.04231975 109.606433,9.04231975 109.606433,9.04231975 C109.646784,9.04231975 109.606433,9 109.606433,9 C109.606433,9.12695925 109.687135,9.169279 109.687135,9.2539185 C109.687135,9.2539185 109.727485,9.29623824 109.767836,9.29623824 C109.888889,9.33855799 109.888889,9.21159875 109.969591,9.12695925 C110.050292,9.169279 109.92924,9.2539185 109.969591,9.29623824 C109.969591,9.29623824 110.009942,9.29623824 110.009942,9.29623824 C110.050292,9.2539185 110.009942,9.21159875 110.050292,9.169279 C110.090643,9.169279 110.050292,9.2539185 110.090643,9.2539185 C110.130994,9.2539185 110.130994,9.21159875 110.130994,9.169279 C110.171345,9.169279 110.171345,9.21159875 110.171345,9.2539185 C110.171345,9.29623824 110.130994,9.29623824 110.130994,9.33855799 C110.211696,9.42319749 110.211696,9.29623824 110.292398,9.29623824 C110.332749,9.29623824 110.332749,9.2539185 110.373099,9.2539185 C110.41345,9.29623824 110.332749,9.38087774 110.373099,9.46551724 C110.373099,9.46551724 110.373099,9.46551724 110.41345,9.46551724 C110.41345,9.46551724 110.41345,9.46551724 110.41345,9.50783699 C110.453801,9.55015674 110.453801,9.63479624 110.534503,9.67711599 C110.615205,9.63479624 110.695906,9.55015674 110.776608,9.55015674 C110.736257,9.63479624 110.695906,9.67711599 110.615205,9.71943574 C110.574854,9.88871473 110.615205,10.015674 110.776608,9.93103448 C110.776608,9.97335423 110.736257,9.97335423 110.695906,9.97335423 C110.695906,10.015674 110.695906,10.015674 110.736257,10.015674 C110.776608,10.015674 110.816959,9.97335423 110.85731,10.015674 C110.85731,10.1003135 110.816959,10.184953 110.736257,10.184953 C110.736257,10.2272727 110.736257,10.184953 110.736257,10.2272727 C110.776608,10.2272727 110.776608,10.2272727 110.816959,10.2272727 C110.776608,10.2272727 110.776608,10.2695925 110.736257,10.2695925 C110.736257,10.3119122 110.776608,10.3119122 110.776608,10.3119122 C110.776608,10.3119122 110.736257,10.354232 110.736257,10.354232 C110.776608,10.4388715 110.776608,10.523511 110.897661,10.523511 C110.938012,10.523511 110.938012,10.5658307 110.978363,10.5658307 C111.018713,10.5658307 111.059064,10.5658307 111.099415,10.5658307 C111.018713,10.6081505 110.897661,10.5658307 110.816959,10.5658307 C110.816959,10.6081505 110.85731,10.5658307 110.85731,10.6081505 C110.816959,10.6081505 110.776608,10.6081505 110.776608,10.69279 C110.736257,10.69279 110.695906,10.69279 110.695906,10.69279 C110.695906,10.7774295 110.816959,10.7774295 110.816959,10.862069 C110.736257,10.862069 110.736257,10.8197492 110.695906,10.8197492 C110.655556,10.862069 110.615205,10.862069 110.574854,10.9467085 C110.615205,10.9890282 110.736257,10.9890282 110.816959,10.9890282 C110.736257,10.9890282 110.695906,11.031348 110.695906,11.1159875 C110.655556,11.1583072 110.615205,11.1583072 110.574854,11.1159875 C110.574854,11.0736677 110.574854,11.0736677 110.574854,11.031348 C110.534503,11.031348 110.534503,11.0736677 110.494152,11.1159875 C110.494152,11.200627 110.574854,11.200627 110.534503,11.2852665 C110.494152,11.2852665 110.41345,11.2429467 110.373099,11.200627 C110.332749,11.200627 110.292398,11.200627 110.292398,11.2429467 C110.292398,11.2852665 110.292398,11.3275862 110.332749,11.3275862 C110.130994,11.2852665 110.130994,11.3275862 110.171345,11.369906 C110.211696,11.3275862 110.211696,11.3275862 110.211696,11.3275862 C110.211696,11.3275862 110.211696,11.4122257 110.171345,11.369906 Z" id="Shape"></path>
            <path d="M14.6947266,11.0986658 C16.492719,9.81677301 17.5143056,9.23785369 17.9638037,6.83947365 C18.3724384,4.60649912 16.6153094,3.2005522 14.6538631,2.82838978 C10.771834,2.08406494 6.1542625,5.59893225 3.90677196,8.45217747 C0.842012127,12.3392072 -1.56893228,18.2524545 1.25064677,22.8424577 C4.15195275,27.556515 9.9545647,23.8762422 12.2837822,20.7335373 C12.8558707,19.9892125 10.8126975,20.154618 10.4040628,20.692186 C8.93297809,22.6357008 6.52203368,24.9100267 4.02936235,23.090566 C2.80345842,22.1808356 2.27223338,20.5681318 2.0270526,19.1208335 C1.45496409,15.8954259 3.13036614,12.42191 4.80576818,9.81677301 C6.31771636,7.41839297 8.64693384,5.51622949 11.1804686,4.39974222 C13.0193245,3.57271462 15.2259516,3.94487704 15.9206305,6.05379743 C16.5744459,8.08001505 14.7764535,9.48596197 13.3870957,10.4783951 C12.3246456,11.2640713 14.0409111,11.553531 14.6947266,11.0986658 Z" id="Shape"></path>
            <path d="M11.7254826,17.15517 C10.8724059,18.5782472 8.51628922,25.5309963 12.3348231,24.7584686 C15.4221483,24.1485783 17.5751515,20.1233026 18.5094736,17.3991261 C18.7938325,16.585939 16.965811,17.0738513 16.6814521,17.3584667 C15.6658845,18.4969285 13.8784857,22.3595669 15.5846391,23.5386881 C17.778265,25.043084 20.5812313,22.4408856 21.2311945,20.407918 C21.4749308,19.6353904 19.4437957,19.9606652 19.2406822,20.6518741 C19.0781914,21.2211051 18.7125871,21.6683579 18.3469828,22.1156108 C17.372038,23.2134133 16.9251883,22.0749514 16.965811,21.2211051 C17.0470564,20.0826432 17.4939061,18.6189066 18.2657374,17.7650602 C17.6563969,17.7650602 17.0470564,17.7244009 16.4377159,17.7244009 C15.74713,19.7167091 14.4065808,21.8716547 12.8629182,23.3353913 C11.9285961,24.1892377 12.1723323,21.3837425 12.2535777,20.9364896 C12.4566912,19.7167091 12.8222955,18.3749505 13.5128814,17.277148 C14.0815992,16.3419829 12.0910869,16.5452797 11.7254826,17.15517 Z" id="Shape"></path>
            <path d="M29.3617474,3.25280888 C29.5244296,2.39198664 29.9718058,0.834308308 28.8737007,0.383401421 C28.0602895,0.0554691398 27.0435255,0.506376026 26.4334671,1.08025752 C23.9118924,3.45776656 23.2611635,7.43394547 22.28507,10.5902937 C20.9836121,14.8534133 19.1127664,19.1575245 19.3974603,23.7485765 C19.6008131,26.7819501 25.0913386,23.789568 26.1081026,23.3386611 C27.4095605,22.8057711 26.2301143,21.9859404 25.2540209,22.3548643 C24.3999391,22.7237881 23.5458574,23.0927119 22.6917756,23.4616357 C20.6175771,24.3224579 21.3903177,21.3710674 21.5123294,20.1413214 C21.7563528,17.7228208 22.6511051,15.4682864 23.3831751,13.1727604 C24.1559158,10.7542598 24.8879858,8.2947677 25.6200559,5.87626713 C25.8640793,5.05643643 26.1487732,4.31858879 26.5148082,3.53974963 C26.8401727,2.88388506 27.2468783,2.31000357 27.6942545,1.77711362 C27.3282194,2.18702897 27.36889,2.9248766 27.2875489,3.41677502 C27.1655372,4.35958033 29.1990652,4.03164805 29.3617474,3.25280888 Z" id="Shape"></path>
            <path d="M34.9595318,1.48810027 C31.9782196,2.80498724 30.4671435,6.46757912 29.3236264,9.30711664 C27.7308706,13.3812357 26.1381147,17.6199656 24.9537578,21.8175428 C24.3003195,24.2044005 25.1987971,25.8505092 27.7717105,25.2332184 C30.0995844,24.6982331 32.6724978,21.6117792 33.4076159,19.4306852 C33.6526552,18.731089 31.6515004,19.019158 31.406461,19.7187542 C31.0797419,20.7064195 27.3224716,25.4801347 26.7507131,23.4636515 C26.3423142,22.0644591 27.4041514,20.047976 27.8942301,18.731089 C28.9969073,15.809246 29.895385,12.7639449 30.9980621,9.84210197 C31.8556999,7.49639706 33.2850962,3.38112529 35.7354898,2.27000191 C37.0423665,1.7761693 35.8580095,1.0765731 34.9595318,1.48810027 Z" id="Shape"></path>
            <path d="M23.7230428,13.0146078 C27.9506306,13.1862119 32.5847172,14.4303418 35.8367079,10.8695564 C36.6903554,9.96863474 34.6985111,9.88283268 34.2107126,10.4405461 C31.8123695,13.0575088 27.6254315,11.813379 24.4547407,11.6846759 C23.641743,11.6417749 22.3815966,12.9288058 23.7230428,13.0146078 Z" id="Shape"></path>
            <path d="M33.1173284,14.6866744 C31.9082367,15.6030326 31.7067214,17.8522754 31.5455092,19.2268126 C31.384297,20.6846551 31.3439939,22.8505926 33.1173284,23.1421611 C36.6236942,23.7252981 38.5179378,17.7273174 38.7597561,15.0198956 C38.8403622,14.0202322 36.9461186,14.5617165 36.7849064,15.2698115 C36.3415728,16.8526119 35.011572,19.6016864 36.2206636,21.1428342 C37.22824,22.4757188 38.8000592,21.1844868 39.4449081,20.1848234 C40.0091509,19.3101179 37.9939981,19.4350758 37.5909675,20.0598655 C37.7118767,20.1015181 37.8730889,20.1431708 37.9939981,20.1848234 C37.913392,20.0182128 37.8730889,19.8099496 37.8327859,19.643339 C37.7521797,19.2268126 37.7924828,18.8519388 37.8730889,18.4354124 C38.0343011,17.2691383 38.4776347,16.144517 38.8000592,15.0615482 C38.1552103,15.1448535 37.4700584,15.2281588 36.8252095,15.3114641 C36.6639972,17.3940963 35.6967239,20.6846551 34.0039956,21.9342344 C34.2055109,21.8092765 34.0442986,21.9342344 33.8427834,21.7259712 C33.6412681,21.517708 33.600965,21.1428342 33.560662,20.8929183 C33.4397528,20.1848234 33.5203589,19.4350758 33.600965,18.7686335 C33.6815711,17.9772333 34.0442986,15.8112958 34.4473292,15.5197273 C35.4952086,14.6033692 33.8427834,14.1451901 33.1173284,14.6866744 Z" id="Shape"></path>
            <path d="M39.6237675,14.469499 C40.8552739,16.2718961 43.4003873,15.4935883 44.5087431,13.9779361 C43.8929899,13.9369726 43.2361864,13.9369726 42.6204332,13.896009 C41.4710272,16.0261147 39.7058679,19.426091 41.2657761,21.7610146 C42.579383,23.7272659 45.3707976,21.9658324 46.1918019,20.5321074 C46.6844045,19.6309089 44.672944,19.8357267 44.303492,20.4501803 C43.1130358,22.5393224 42.6614834,19.5899453 42.7846341,18.565856 C42.9898851,16.9273132 43.728789,15.4116611 44.5087431,13.9779361 C45.0013457,12.9948105 42.9898851,13.3634826 42.6204332,13.896009 C42.1688808,14.5104626 41.7994289,14.1008269 41.4710272,13.609264 C41.060525,12.9948105 39.1311649,13.7321547 39.6237675,14.469499 Z" id="Shape"></path>
            <path d="M46.2919093,20.270316 C48.801912,18.9392953 51.4333665,14.946233 50.9070756,11.9514363 C50.8665917,11.7850587 50.6641721,11.7434643 50.5427204,11.7434643 C48.316105,11.5770867 46.5752967,12.7001354 45.6441666,14.7798554 C44.7130366,16.8179809 44.2677135,20.0207496 45.0773918,22.142064 C45.8465862,24.1801895 48.2756211,23.8890287 49.8544938,23.2651127 C51.9191735,22.4748192 53.6194979,20.478288 54.064821,18.2737849 C54.1862727,17.6498689 52.2025609,18.0242185 52.0811091,18.6065401 C51.7572378,20.1871272 50.2998169,22.8907632 48.3970729,22.7243856 C46.2919093,22.558008 46.6157806,19.0640785 46.7777163,17.6498689 C46.899168,16.6516033 47.1015876,15.6949322 47.4659428,14.738261 C47.7088463,14.114345 49.1257833,11.6186811 48.9638477,13.6152122 C48.7614281,15.8197154 47.0611037,18.8145121 45.1178757,19.8127776 C43.9033583,20.478288 45.7251345,20.5614768 46.2919093,20.270316 Z" id="Shape"></path>
            <path d="M61.5941532,5.98719355 C60.9040708,7.67907313 64.070331,6.64743924 64.6386341,6.15225497 C66.8712534,4.21278326 65.9782057,1.2004123 63.3396556,0.292574481 C59.483313,-1.06918225 51.0399526,2.47963833 53.4349443,7.67907313 C54.6121436,10.2787905 57.2506937,12.0119355 58.7932307,14.3227954 C61.2288154,17.9128813 62.7713524,22.864724 62.040677,27.2388517 C61.2288154,32.0256329 55.9111221,33.8825739 52.2171519,31.1177951 C50.8369872,30.0861612 50.1063118,28.3530163 50.1874979,26.6198713 C50.3092772,24.8041957 53.5973166,22.5758665 53.8408751,25.3819107 C53.8814681,26.0421564 55.9111221,25.5882375 55.8299359,24.8041957 C55.4240051,20.3888026 47.9142855,23.9788886 48.157844,27.4864438 C48.6043679,33.5524511 55.6675636,34.8316771 60.0922092,32.3557558 C67.1148119,28.4768123 63.7455863,18.8207191 60.6199193,13.4974883 C59.1179753,10.9390362 55.9923082,9.288422 55.0992605,6.35858175 C53.3537581,0.663962681 66.3841365,-1.19297832 63.583214,5.65707071 C63.8673656,5.07935573 61.8783047,5.32694786 61.5941532,5.98719355 Z" id="Shape"></path>
            <path d="M71.8318857,12.9820973 C70.9718897,11.1141794 68.1871407,12.3323867 66.958575,13.1851318 C64.788109,14.6469806 63.1500214,17.2052159 63.9690652,19.844665 C64.583348,21.9156174 67.2042882,20.7380171 68.3509495,19.885272 C70.60332,18.1797817 71.2176028,15.4591188 72.5280729,13.103918 C71.8728379,13.2257387 71.2176028,13.3069525 70.5214156,13.4287733 C69.743324,14.9718359 67.0814316,18.5452439 68.6376148,20.2913411 C69.8661805,21.671976 71.9547422,20.1289134 72.6099773,18.9919199 C72.8556904,18.6264577 70.9309375,18.7888854 70.60332,19.3167752 C70.1118937,19.8040581 70.1118937,19.9664858 70.6442722,19.7228443 C70.4804634,19.5604167 70.398559,19.3573821 70.3576068,19.1543476 C70.1118937,18.4640301 70.3576068,17.6518919 70.5623678,17.0021814 C71.0128419,15.6215464 71.8318857,14.3627322 72.5280729,13.103918 C72.773786,12.657242 70.8490331,12.9008835 70.5214156,13.4287733 C69.9480849,14.4845529 69.4976108,15.5809395 69.0061845,16.6773261 C68.8014236,17.0833952 66.9995272,20.3725549 66.3442922,19.885272 C65.1566787,19.0731338 65.8119137,16.7585399 66.30334,15.7433671 C66.6719097,14.9718359 69.1290411,11.8857107 69.8661805,13.4693802 C70.0709415,14.1190907 72.0366466,13.4693802 71.8318857,12.9820973 Z" id="Shape"></path>
            <path d="M73.9551974,14.0471183 C73.473813,16.368049 71.3476986,19.9737807 72.9523132,22.1703758 C73.2732362,22.626273 74.356351,22.1703758 74.6371586,21.8802595 C76.9237345,19.9323355 78.2475415,16.7825009 79.1701949,13.9642279 C78.5283491,14.1300086 77.8463879,14.2543442 77.204542,14.420125 C77.2446574,15.290474 77.6056957,16.8653913 78.5283491,17.238398 C79.6515793,17.6528499 80.6544635,17.1140625 81.4166554,16.2851586 C81.7375784,15.9121519 81.1358479,15.7463711 80.8951557,15.7463711 C80.4137713,15.7463711 79.9323869,15.9535971 79.611464,16.3266038 C80.0928484,16.368049 80.1730791,16.2437134 79.8521562,16.0364875 C79.6916947,15.8292615 79.5713486,15.5805904 79.4911179,15.3319192 C79.290541,14.8760221 79.2103103,14.3786798 79.1701949,13.8813375 C79.1300796,13.2182144 77.3650035,13.8398923 77.204542,14.3372346 C76.3621193,16.9482817 75.1586584,19.8908903 73.032544,21.6730335 C73.5941591,21.5901432 74.1557742,21.5072528 74.7173893,21.3829172 C73.3133515,19.4349932 75.4394659,15.7463711 75.8406196,13.7570019 C76.0411964,13.0524337 74.0755435,13.3839952 73.9551974,14.0471183 Z" id="Shape"></path>
            <path d="M81.7405228,16.5931716 C83.1685969,15.976519 85.9023386,13.1810274 85.0454942,11.4544002 C84.6374731,10.673307 83.2502011,10.8788578 82.6381694,11.166629 C81.4141059,11.7421714 80.7612721,12.7288155 80.1492403,13.9210105 C79.4556044,15.2776461 77.1706859,20.5808582 79.7412192,21.4030617 C82.8013778,22.3485956 86.0655471,18.360909 87.3712148,16.0587394 C87.779236,15.3187563 85.8207344,15.6476377 85.5351196,16.1409597 C85.0046921,17.0864937 81.781325,21.485282 80.8836784,19.9642057 C80.1492403,18.6897903 80.8836784,16.7987225 81.3325017,15.5243072 C81.6181165,14.6609936 81.9853355,13.8387901 82.4341588,13.0576969 C82.5973673,12.7288155 82.84218,12.4410443 83.0461905,12.1943833 C83.1277948,12.1121629 83.2502011,11.9888324 83.3318054,11.9066121 C82.84218,11.9066121 82.7605757,12.0299426 83.1277948,12.2766036 C83.6174202,13.2221376 81.8221271,15.6887478 81.0060848,16.0176292 C79.7004171,16.4698411 80.9244805,16.922053 81.7405228,16.5931716 Z" id="Shape"></path>
            <path d="M88.6067916,14.6158121 C89.7442704,13.9231647 90.2317613,13.0675415 90.0692643,11.7637346 C90.0286401,11.2340631 88.9317856,11.5192708 88.6880401,11.6415027 C86.3724584,12.497126 87.6318099,15.6344112 87.9161796,17.4271457 C88.159925,18.7309526 87.1036948,19.9940155 86.2505857,20.8903827 C85.5193494,21.6237741 85.3568524,20.6459189 85.3162282,19.9532715 C84.0162525,20.0347594 83.7318828,20.2384793 84.3818707,20.564431 C84.6662403,20.7681508 84.9099858,21.0126146 85.113107,21.2163344 C86.7787008,22.7646051 87.3474402,24.1498999 89.7848946,23.986924 C92.3442218,23.8239482 95.1472943,21.5015422 95.756658,19.0161603 C95.9191549,18.242025 93.9285671,18.6087207 93.7660702,19.3013681 C93.400452,20.8496387 90.5973794,24.1906439 88.9317856,22.4386534 C88.0380523,21.5015422 87.2255675,20.523687 86.2099615,19.7088077 C84.7068646,18.4864888 82.9600222,19.4643439 83.4881374,21.3385663 C84.1381252,23.7832042 87.306816,21.7867499 88.2411735,20.7274068 C88.9724098,19.8717836 89.9473916,18.6494646 89.9067673,17.4678897 C89.9067673,16.7752423 88.7286644,12.7415897 89.4599007,12.456382 C89.0130341,12.415638 88.5255432,12.3748941 88.0786765,12.3341501 C87.8349311,12.9045656 87.5911856,13.4749811 87.3474402,14.0453966 C86.2099615,14.738044 87.9568038,15.0232518 88.6067916,14.6158121 Z" id="Shape"></path>
            <path d="M92.0923858,7.92695487 C97.8343329,9.32835038 103.006158,11.059486 108.748105,8.8337402 C111.63944,7.7208673 116.974156,5.49512149 115.263789,1.53824006 C113.634868,-2.33620634 108.259428,2.15650278 106.711953,3.59911581 C102.110251,7.84451984 99.8297613,13.9859296 97.3456565,19.5915116 C96.4904729,21.5287348 95.5538433,23.465958 94.4135985,25.2795287 C93.8434761,26.268749 93.1511846,27.1755343 92.41817,28.0411022 C92.2145549,28.2884072 90.7892489,29.9371078 90.3412956,28.7417999 C90.0969574,28.0823197 90.3005725,27.2579694 90.4634647,26.5984891 C91.0335871,24.4963959 96.6940881,30.2256305 97.2642105,30.8851107 C99.2596389,33.0284215 101.540129,34.3473819 104.309294,35.2541673 C108.503766,36.6555628 113.675591,36.2021701 116.89271,32.8635514 C117.788617,31.9567661 118.928862,29.2776276 117.177772,28.5769299 C115.793189,28.0411022 114.082821,28.2884072 113.186915,29.5661502 C112.698238,30.2256305 114.693667,29.9783254 115.019451,29.4837152 C115.956081,29.6898028 116.281865,30.1844129 116.037527,31.0499807 C115.915358,31.5858084 115.711743,32.0392011 115.385958,32.4925938 C114.367883,34.1825119 112.168839,34.8007746 110.377026,34.9656447 C107.770752,35.1717322 105.083032,34.1825119 102.761819,33.0284215 C98.9338547,31.1324158 97.0605953,26.268749 92.7032312,25.3207462 C89.8526192,24.7024834 87.3277914,26.6809242 88.5494823,29.7722378 C89.3639429,31.874331 93.1919076,29.1951926 93.9656451,28.3708423 C99.7890383,22.1469975 101.132898,12.8730567 106.264,6.11338422 C107.07846,5.04172883 110.865702,0.260497096 112.698238,1.37337 C115.385958,2.98085308 112.535346,5.86607913 111.028594,6.77286446 C108.870274,8.09182493 106.223277,8.95739275 103.739172,9.03982778 C100.359161,9.16348032 96.9384262,7.80330233 93.6805839,7.02016954 C93.1511846,6.896517 91.3593713,7.76208481 92.0923858,7.92695487 Z" id="Shape"></path>
            <path d="M106.73901,12.5537025 C105.878333,14.0570702 104.607811,15.2760169 103.747135,16.738753 C103.132366,17.754542 102.517597,19.7048568 103.70615,20.5987511 C105.796364,22.1427503 108.952177,18.8515941 109.6899,17.1450686 C110.14073,16.1699112 108.091501,16.2918059 107.763624,17.023174 C107.435748,17.7139104 106.943933,18.2827523 106.411133,18.8109625 C105.591441,19.6235937 105.017657,19.9486462 105.058642,18.4859101 C105.058642,16.2918059 107.599686,14.4227542 108.624301,12.6349657 C109.1571,11.7410714 107.148855,11.862966 106.73901,12.5537025 Z" id="Shape"></path>
            <path d="M111.195795,14.7208321 C110.454958,17.1272305 109.755278,19.5336289 110.125697,22.1059858 C110.208012,22.7283302 111.854317,22.0644962 112.060105,21.7740688 C113.747568,19.2017119 115.229242,16.5048861 116.546286,13.6835914 C115.887764,13.8080603 115.229242,13.8910396 114.529562,14.0155084 C114.200301,15.4261558 113.624095,18.4963882 115.764291,18.745326 C117.616384,18.9527741 119.139216,17.4591475 120.168156,16.0899898 C120.662048,15.4261558 118.645324,15.7165832 118.316063,16.1729691 C117.698699,17.0027616 116.834389,18.3304297 116.29934,16.7123342 C116.011237,15.7580728 116.29934,14.6378529 116.546286,13.6835914 C116.710916,13.0197574 114.776508,13.5176329 114.529562,14.0155084 C113.253676,16.7123342 111.854317,19.3261807 110.208012,21.857048 C110.866534,21.7325791 111.483898,21.6495999 112.14242,21.525131 C111.772002,19.0357534 112.512839,16.7123342 113.212518,14.3889151 C113.377149,13.8080603 111.360426,14.1399773 111.195795,14.7208321 Z" id="Shape"></path>
            <path d="M120.790516,16.0020475 C122.474565,15.3055832 123.717555,13.6668437 123.43688,11.7413249 C123.396783,11.4955139 122.995819,11.4545455 122.835433,11.4545455 C119.587623,11.5774509 117.26203,16.4936693 117.94367,19.4434003 C118.304537,21.1231083 120.389551,20.8772974 121.512251,20.2627701 C123.116108,19.3614634 124.319001,17.6817554 125.281315,16.1659214 C125.762472,15.3875202 123.797747,15.6333311 123.43688,16.1659214 C122.915626,16.9852911 122.354276,17.7636924 121.712733,18.5011251 C121.351866,18.91081 120.950901,19.2795264 120.469744,19.6072743 C120.06878,19.8940537 119.788105,18.6240306 119.748009,18.4191882 C119.627719,17.3540075 120.028684,16.2068899 120.429648,15.2236462 C120.670226,14.6500874 120.950901,14.1174971 121.271673,13.6258752 C121.432058,13.3390958 121.632541,13.0932849 121.873119,12.847474 C122.073601,12.6426316 122.434469,12.5606946 122.033505,12.6016631 C121.833023,12.5197261 121.632541,12.3968206 121.432058,12.3148837 C121.592444,13.4620013 121.071191,14.7729929 119.948491,15.2236462 C118.745598,15.7152681 119.948491,16.3297953 120.790516,16.0020475 Z" id="Shape"></path>
            <path d="M125.183026,13.0984263 C126.639396,13.0984263 129.430772,13.0163026 128.904861,10.8400248 C128.823951,10.5525919 128.257585,10.5936538 128.055311,10.6347156 C126.558486,10.8810867 126.194394,11.6612617 126.437122,13.1394881 C126.679851,14.3713435 127.246217,15.4389514 127.003488,16.7118686 C126.841669,17.6562911 125.99212,19.2166412 124.818933,18.3954043 C124.212112,17.943724 124.293022,16.9993015 123.726655,16.6297449 C124.414386,17.0814252 124.616659,18.3543424 125.102116,19.0113319 C125.708937,19.8325688 126.558486,20.0789399 127.569855,20.1610636 C129.713955,20.3663728 131.89851,19.0113319 133.5167,17.7384147 C136.914897,15.028333 140.96037,7.47295358 134.811251,5.33773766 C131.777146,4.2701297 128.540768,9.03330368 132.464877,9.07436553 C133.112152,9.07436553 134.608977,8.08888125 133.273971,8.04781941 C131.89851,8.04781941 132.505331,5.25561397 134.689887,7.06233514 C135.782164,7.96569572 136.186712,9.52604582 136.065347,10.9221485 C135.863074,13.5911684 133.395335,16.3833739 131.413054,17.943724 C129.633046,19.3808885 127.569855,19.5861978 126.558486,17.4920437 C126.234849,16.7939923 125.951665,16.095941 125.263935,15.6442607 C124.495295,15.1104567 123.160289,15.6442607 122.513014,16.1780646 C120.328458,17.943724 124.171657,20.325311 125.99212,19.5451359 C127.691219,18.8060227 128.783496,17.5741674 129.107134,15.7263844 C129.188044,15.1925804 128.945315,14.5355909 128.823951,14.0428487 C128.702587,13.5501066 128.540768,13.0573645 128.419404,12.5646223 C128.21713,11.7433854 128.702587,11.4148907 127.731673,11.6201999 C127.44849,11.5380762 127.165307,11.4970144 126.882124,11.4148907 C126.841669,12.0718802 126.558486,12.3182513 125.951665,12.0718802 C125.344844,12.112942 123.84802,13.0984263 125.183026,13.0984263 Z" id="Shape"></path>
        </g>
    </g>
</svg>