<?xml version="1.0" encoding="utf-8"?>
<!-- Generator: Adobe Illustrator 22.0.0, SVG Export Plug-In . SVG Version: 6.00 Build 0)  -->
<svg version="1.1" id="Layer_1" xmlns="http://www.w3.org/2000/svg" xmlns:xlink="http://www.w3.org/1999/xlink" x="0px" y="0px"
	 viewBox="0 0 612 792" style="enable-background:new 0 0 612 792;" xml:space="preserve">
<style type="text/css">
	.st0{fill-rule:evenodd;clip-rule:evenodd;}
</style>
<g>
	<g>
		<path d="M552,286.3c0.1,4.5,0.1,9,0.2,13.5c0,3.3,0.1,6.7,0.1,10c0,1,0,2,0,3.1c0,2-0.4,1.1,1.1,0.3
			c-10.5,5.7-21.1,11.5-31.5,17.4c-5.3,3-9.4,5.9-13,10.9c-4.5,6.2-5.6,13.8-9.5,20.1c-9.7,15.4-28.9,25.9-44,34.7c2,0.7,4,1.3,6,2
			c2.6-6.6,5.1-13.1,7.7-19.7c1.2-3-5.3-2.6-6.6-1.6c-8.2,6.3-17.3,14.2-27.2,17.4c-7.3,2.4-17.5,1.9-25.4,2.4
			c-19.2,1.2-38.5,2-57.8,2.7c1.2,0.8,2.3,1.6,3.5,2.5c2.4-3.7,4.6-7.6,6.7-11.5c2.4-4.3,6.6-10.8,5.9-16.1
			c-0.3-2.5-5.3-2.4-6.7-1.1c-9.3,8.7-18.9,17.8-29.7,24.6c-1,0.7-2.2,1.4-3.3,1.8c-1.2,0.4,1,0.1-0.6,0.1c-1.7,0-3.3-0.1-5-0.1
			c-6-0.1-12-0.3-18-0.5c-24.8-0.8-49.7-1.6-74.5-2.5c1.1,0.8,2.3,1.6,3.5,2.5c3.6-7.6,7.2-15.2,10.7-22.8c1.3-2.8-4.8-2.5-6-2
			c-12.9,5.5-25.8,11.1-38.4,17.2c-6.9,3.3-12.8,7.2-20.5,8.4c-13,2-26.7,0.6-39.8-0.4c1,1,2.1,1.9,3.1,2.9
			c10-8.3,22-19.4,25.2-32.4c0.6-2.3-5.2-2.1-6.2-1.5c-13.4,8-26.8,16.1-40.6,23.4c-3.7,2-5.2,0.5-9.4-1.7
			c-7.7-4.1-14.7-9.9-21.1-15.8c-9.4-8.7-16.5-20.1-23.2-31c-2.4-3.8-4.7-7.7-6.9-11.6c-0.5-0.8-1-1.7-1.4-2.5
			c0.4,0.7-1.2,1.7,0.6,0.5c6.7-5,13.7-9.7,20.7-14.3c9.1-6,18.8-12.3,29.3-15.7c8.8-2.9,19.8-1.4,28.9-0.9
			c8.7,0.5,17.5,1.5,26.1,3.1c6.9,1.2,15,2.7,20.9,6.8c1.1,0.8,8.4,1.3,6.7-1.3c-4.8-7.4-10.8-14.2-17.1-20.4
			c-0.7,0.9-1.5,1.8-2.2,2.7c15.9-2.7,32.3-5.1,48.5-5.2c3.2,0,7-0.2,10,1.2c4.8,2.3,9.1,5.5,13.4,8.6c6.8,4.9,13.3,10,19.8,15.3
			c1.4,1.1,7.5,1.8,6.7-1.3c-1.9-7-4-14.1-7-20.7c-0.6,0.7-1.1,1.4-1.7,2.1c9.1-2.7,18.5-5,28-6c10.9-1.3,22.6,0.3,33.6,0.9
			c6.5,0.4,18.7-0.2,22.7,2.8c8.4,6.4,18.2,13.1,24.4,21.7c1.3,1.8,8.3,2,7-0.9c-4-8.7-8-17.4-11.9-26.2c-1.5,0.7-3,1.5-4.5,2.2
			c13.2,1.6,26.3,3.3,39.5,4.8c6.1,0.7,12.3,1.3,18.5,2c5.3,0.6,10.7,4.3,15.1,7c4.4,2.6,8.7,5.5,12.6,8.8c1.3,1.1,7.8,1.7,6.7-1.3
			c-2.7-7.3-5.5-14.6-8.2-21.9c-0.9,0.8-1.7,1.5-2.6,2.3c4.6-0.2,9.1-0.6,13.7-1c6.9-0.6,11.3-2.3,17.7,1.4
			c8.4,4.9,14.7,13.9,20.8,21.3c3.3,4.1,7.1,10.2,12.3,12c4,1.4,9.4-1.4,13-3.1c6-2.9,11.4-6.9,16.7-10.8
			c7.5-5.6,14.6-11.8,21.3-18.4c2.4-2.4-4.5-3.7-6.2-2c-6,5.9-12.4,11.4-19,16.6c-5.3,4.2-10.8,8.1-16.7,11.3
			c-1.1,0.6-2.2,1.1-3.3,1.6c-0.8,0.3-1.6,0.6-2.4,0.9c-1.3,0.2-1.3,0.4,0,0.5c-2.3-1.7-4.2-4.2-6-6.4
			c-9.7-11.4-18.9-26.1-34.4-29.7c-4.7-1.1-9.5,0.5-14.2,1c-5,0.6-10,0.9-15,1.1c-1.1,0.1-3.1,0.8-2.6,2.3
			c2.7,7.3,5.5,14.6,8.2,21.9c2.2-0.4,4.4-0.9,6.7-1.3c-7.4-6.3-16.3-12-25.3-15.6c-6.5-2.6-13.6-2.6-20.4-3.4
			c-14.7-1.7-29.4-3.5-44.2-5.3c-1.1-0.1-5.5,0-4.5,2.2c4,8.7,8,17.4,11.9,26.2c2.3-0.3,4.7-0.6,7-0.9c-6.7-9.2-16.8-16.3-25.7-23.1
			c-6.1-4.6-16.7-3.7-24-4.1c-12.1-0.8-24.8-2.2-36.9-1.3c-11.1,0.8-22.1,3.5-32.8,6.6c-0.9,0.3-2.2,0.9-1.7,2.1
			c3,6.6,5,13.7,7,20.7c2.2-0.4,4.4-0.9,6.7-1.3c-7.2-5.9-14.5-11.6-22.1-17c-7.8-5.5-14.4-9.6-24-10.1c-17.7-0.8-36.1,2.3-53.6,5.2
			c-1.2,0.2-3.8,1.2-2.2,2.7c6,6,11.8,12.4,16.4,19.5c2.2-0.4,4.4-0.9,6.7-1.3c-10.7-7.6-25.9-9.1-38.6-10.6
			c-13.8-1.6-28.2-2.8-42.1-1.1c-12.6,1.5-24.9,10.4-35.2,17.1c-8,5.1-15.8,10.5-23.5,16.2c-0.4,0.3-0.7,0.9-0.4,1.4
			c14.3,25.7,32.5,55.4,61.6,66c9.6,3.5,19.3-4.9,27.2-9.4c8.7-5,17.4-10.1,26-15.3c-2.1-0.5-4.1-1-6.2-1.5
			c-3.1,12.2-14.8,22.8-24.2,30.5c-2.1,1.8,2,2.8,3.1,2.9c13.4,1.1,26.9,2,40.3,0.5c8-0.9,14.1-3.9,21.1-7.5
			c13.8-7.1,28.1-13.1,42.4-19.2c-2-0.7-4-1.3-6-2c-3.6,7.6-7.2,15.2-10.7,22.8c-0.9,1.8,2.3,2.4,3.5,2.5
			c26.3,0.9,52.5,1.8,78.8,2.6c9,0.3,19.8,2.5,27.8-2.4c11.3-6.8,21.3-16.4,30.8-25.3c-2.3-0.4-4.5-0.7-6.7-1.1
			c0.7,4.9-3.4,11-5.6,15.1c-2.1,3.9-4.4,7.7-6.7,11.5c-1.1,1.7,2.5,2.5,3.5,2.5c20.3-0.7,40.6-1.6,60.9-2.9
			c8.6-0.5,18.5-0.2,26.7-2.9c10.5-3.5,20.3-11.7,29-18.5c-2.2-0.5-4.4-1.1-6.6-1.6c-2.6,6.6-5.1,13.1-7.7,19.7
			c-1.1,2.7,4.7,2.7,6,2c13.4-7.8,26.7-16.1,37.9-26.9c3-2.9,5.7-6,8-9.5c2.7-4.1,3.6-9,5.6-13.4c5.3-11.7,14.7-15.9,25.3-21.8
			c7.1-3.9,14.2-7.8,21.2-11.6c0.5-0.3,1.1-0.7,1.1-1.3c-0.1-9.4-0.2-18.8-0.3-28.1C559.2,283.8,552,283.7,552,286.3z"/>
	</g>
</g>
<path d="M57.1,330.1c0,0,43.6-33.5,52.2-32.3c26.3,3.5,49.9,37,49.9,37s-8.1,38.8-38.4,60.1c0,0-24-6-41.2-28.7
	C62.3,343.5,57.1,330.1,57.1,330.1z"/>
<g>
	<path class="st0" d="M405.7,450.1c0,0.1,0,0.2,0,0.2c-0.2,0-0.1-0.3-0.2-0.5c-0.1,0-0.1,0-0.1,0c-0.2-0.1-0.6-0.1-0.8,0.1
		c0,0.2-0.1,0.2,0,0.4c-0.2-0.1-0.2-0.5-0.4-0.5c-0.1,0-0.1,0.1-0.1,0.2c-0.1,0-0.1-0.2-0.1-0.3c-0.1-0.1-0.2,0-0.3,0
		c0,0.1-0.1,0.1-0.1,0.2c-0.1-0.1-0.2,0.1-0.3,0.1c0-0.1,0.1-0.2,0.1-0.3c0-0.2-0.2-0.2-0.4-0.3c0-0.1,0.1-0.3,0-0.3
		c-0.1,0-0.4,0.2-0.6,0.3c-0.1,0.1-0.1,0.1-0.1,0.2c0,0-0.1-0.1,0,0c0,0,0-0.1,0-0.1c0.2-0.1,0.4-0.4,0.7-0.5c0-0.1-0.1-0.1-0.1-0.1
		c-0.1,0-0.2,0.2-0.3,0.1c-0.1-0.2,0.2-0.1,0.2-0.2c-0.1-0.1,0-0.2,0-0.3c-0.2,0-0.3,0.1-0.5,0.1c0.1-0.1,0.3-0.1,0.4-0.2
		c0-0.1-0.1-0.1-0.2-0.1c0-0.1,0.1-0.1,0.1-0.1c0,0,0-0.1,0-0.1c-0.1,0-0.3,0-0.3-0.1c0.1,0,0.3,0,0.3-0.1c0-0.2-0.5,0-0.6-0.1
		c0.1-0.2,0.6,0,0.5-0.3c0,0-0.1-0.1-0.1-0.1c0.1-0.2,0.3-0.2,0.3-0.5c0,0-0.1-0.1-0.1-0.1c0-0.1,0.1-0.1,0-0.2
		c-0.1-0.1-0.3-0.2-0.4-0.4c0,0,0,0,0,0c0.2,0.1,0.3,0.3,0.5,0.3c0.1,0,0.2-0.2,0.3-0.2c-0.1-0.1-0.1-0.2-0.1-0.5
		c0.1-0.1,0.2,0,0.3,0.1c0,0,0.1,0,0.1-0.1c0.1,0,0.1,0,0.2,0c0.1-0.3-0.2-0.4-0.1-0.6c0.1,0,0.1,0.2,0.2,0.3c0,0,0.1,0,0-0.1
		c0.1,0.2,0.2,0.1,0.3,0c0,0,0,0.1,0.1,0.1c0.1,0,0.1,0,0.1,0c0-0.2,0-0.2,0-0.4c0.1,0,0,0.1,0.1,0.1c0.1-0.2,0-0.4,0-0.7
		c0,0.1,0.1,0.1,0.1,0.1c0.1,0,0-0.1,0-0.1c0,0.3,0.2,0.4,0.2,0.6c0,0,0.1,0.1,0.2,0.1c0.3,0.1,0.3-0.2,0.5-0.4
		c0.2,0.1-0.1,0.3,0,0.4c0,0,0.1,0,0.1,0c0.1-0.1,0-0.2,0.1-0.3c0.1,0,0,0.2,0.1,0.2c0.1,0,0.1-0.1,0.1-0.2c0.1,0,0.1,0.1,0.1,0.2
		c0,0.1-0.1,0.1-0.1,0.2c0.2,0.2,0.2-0.1,0.4-0.1c0.1,0,0.1-0.1,0.2-0.1c0.1,0.1-0.1,0.3,0,0.5c0,0,0,0,0.1,0c0,0,0,0,0,0.1
		c0.1,0.1,0.1,0.3,0.3,0.4c0.2-0.1,0.4-0.3,0.6-0.3c-0.1,0.2-0.2,0.3-0.4,0.4c-0.1,0.4,0,0.7,0.4,0.5c0,0.1-0.1,0.1-0.2,0.1
		c0,0.1,0,0.1,0.1,0.1c0.1,0,0.2-0.1,0.3,0c0,0.2-0.1,0.4-0.3,0.4c0,0.1,0,0,0,0.1c0.1,0,0.1,0,0.2,0c-0.1,0-0.1,0.1-0.2,0.1
		c0,0.1,0.1,0.1,0.1,0.1c0,0-0.1,0.1-0.1,0.1c0.1,0.2,0.1,0.4,0.4,0.4c0.1,0,0.1,0.1,0.2,0.1c0.1,0,0.2,0,0.3,0
		c-0.2,0.1-0.5,0-0.7,0c0,0.1,0.1,0,0.1,0.1c-0.1,0-0.2,0-0.2,0.2c-0.1,0-0.2,0-0.2,0c0,0.2,0.3,0.2,0.3,0.4c-0.2,0-0.2-0.1-0.3-0.1
		c-0.1,0.1-0.2,0.1-0.3,0.3c0.1,0.1,0.4,0.1,0.6,0.1c-0.2,0-0.3,0.1-0.3,0.3c-0.1,0.1-0.2,0.1-0.3,0c0-0.1,0-0.1,0-0.2
		c-0.1,0-0.1,0.1-0.2,0.2c0,0.2,0.2,0.2,0.1,0.4c-0.1,0-0.3-0.1-0.4-0.2c-0.1,0-0.2,0-0.2,0.1c0,0.1,0,0.2,0.1,0.2
		C405.6,449.9,405.6,450,405.7,450.1c0.1-0.1,0.1-0.1,0.1-0.1C405.8,450,405.8,450.2,405.7,450.1z"/>
	<g>
		<path d="M170.3,449.6c4.4-3.1,6.9-4.5,8-10.3c1-5.4-3.3-8.8-8.1-9.7c-9.5-1.8-20.8,6.7-26.3,13.6c-7.5,9.4-13.4,23.7-6.5,34.8
			c7.1,11.4,21.3,2.5,27-5.1c1.4-1.8-3.6-1.4-4.6-0.1c-3.6,4.7-9.5,10.2-15.6,5.8c-3-2.2-4.3-6.1-4.9-9.6
			c-1.4-7.8,2.7-16.2,6.8-22.5c3.7-5.8,9.4-10.4,15.6-13.1c4.5-2,9.9-1.1,11.6,4c1.6,4.9-2.8,8.3-6.2,10.7
			C164.5,450,168.7,450.7,170.3,449.6L170.3,449.6z"/>
	</g>
	<g>
		<path d="M163.5,464.2c-2.1,3.5-7.9,20.6,1.5,18.7c7.6-1.5,12.9-11.4,15.2-18.1c0.7-2-3.8-0.8-4.5-0.1c-2.5,2.8-6.9,12.3-2.7,15.2
			c5.4,3.7,12.3-2.7,13.9-7.7c0.6-1.9-4.4-1.1-4.9,0.6c-0.4,1.4-1.3,2.5-2.2,3.6c-2.4,2.7-3.5-0.1-3.4-2.2c0.2-2.8,1.3-6.4,3.2-8.5
			c-1.5,0-3-0.1-4.5-0.1c-1.7,4.9-5,10.2-8.8,13.8c-2.3,2.1-1.7-4.8-1.5-5.9c0.5-3,1.4-6.3,3.1-9
			C169.3,462.2,164.4,462.7,163.5,464.2L163.5,464.2z"/>
	</g>
	<g>
		<path d="M206.7,430.9c0.4-2.1,1.5-5.9-1.2-7c-2-0.8-4.5,0.3-6,1.7c-6.2,5.8-7.8,15.5-10.2,23.2c-3.2,10.4-7.8,20.9-7.1,32.1
			c0.5,7.4,14,0.1,16.5-1c3.2-1.3,0.3-3.3-2.1-2.4c-2.1,0.9-4.2,1.8-6.3,2.7c-5.1,2.1-3.2-5.1-2.9-8.1c0.6-5.9,2.8-11.4,4.6-17
			c1.9-5.9,3.7-11.9,5.5-17.8c0.6-2,1.3-3.8,2.2-5.7c0.8-1.6,1.8-3,2.9-4.3c-0.9,1-0.8,2.8-1,4C201.3,433.6,206.3,432.8,206.7,430.9
			L206.7,430.9z"/>
	</g>
	<g>
		<path d="M220.3,426.3c-7.3,3.2-11,12.1-13.8,19c-3.9,9.9-7.8,20.2-10.7,30.4c-1.6,5.8,0.6,9.8,6.9,8.3c5.7-1.3,12-8.8,13.8-14.1
			c0.6-1.7-4.3-1-4.9,0.7c-0.8,2.4-10,14-11.4,9.1c-1-3.4,1.6-8.3,2.8-11.5c2.7-7.1,4.9-14.5,7.6-21.6c2.1-5.7,5.6-15.7,11.6-18.4
			C225.4,427,222.5,425.3,220.3,426.3L220.3,426.3z"/>
	</g>
	<g>
		<path d="M192.9,453.8c10.4,0.4,21.8,3.3,29.8-5c2.1-2.1-2.8-2.3-4-1c-5.9,6.1-16.2,3.2-24,2.9
			C192.7,450.6,189.6,453.6,192.9,453.8L192.9,453.8z"/>
	</g>
	<g>
		<path d="M216.5,458.5c-3,2.2-3.5,7.6-3.9,10.9c-0.4,3.5-0.5,8.7,3.9,9.4c8.7,1.4,13.4-13,14-19.5c0.2-2.4-4.5-1.1-4.9,0.6
			c-1.1,3.8-4.4,10.4-1.4,14.1c2.5,3.2,6.4,0.1,8-2.3c1.4-2.1-3.6-1.8-4.6-0.3c0.3,0.1,0.7,0.2,1,0.3c-0.2-0.4-0.3-0.9-0.4-1.3
			c-0.2-1-0.1-1.9,0.1-2.9c0.4-2.8,1.5-5.5,2.3-8.1c-1.6,0.2-3.3,0.4-4.9,0.6c-0.4,5-2.8,12.9-7,15.9c0.5-0.3,0.1,0-0.4-0.5
			c-0.5-0.5-0.6-1.4-0.7-2c-0.3-1.7-0.1-3.5,0.1-5.1c0.2-1.9,1.1-7.1,2.1-7.8C222.4,458.3,218.3,457.2,216.5,458.5L216.5,458.5z"/>
	</g>
	<g>
		<path d="M232.4,457.9c3,4.4,9.2,2.5,11.9-1.2c-1.5-0.1-3.1-0.1-4.6-0.2c-2.8,5.2-7.1,13.5-3.3,19.2c3.2,4.8,10,0.5,12-3
			c1.2-2.2-3.7-1.7-4.6-0.2c-2.9,5.1-4-2.1-3.7-4.6c0.5-4,2.3-7.7,4.2-11.2c1.2-2.4-3.7-1.5-4.6-0.2c-1.1,1.5-2,0.5-2.8-0.7
			C235.9,454.3,231.2,456.1,232.4,457.9L232.4,457.9z"/>
	</g>
	<g>
		<path d="M248.4,471.7c6.2-3.2,12.7-12.8,11.4-20c-0.1-0.4-0.6-0.5-0.9-0.5c-5.5-0.4-9.8,2.3-12.1,7.3c-2.3,4.9-3.4,12.6-1.4,17.7
			c1.9,4.9,7.9,4.2,11.8,2.7c5.1-1.9,9.3-6.7,10.4-12c0.3-1.5-4.6-0.6-4.9,0.8c-0.8,3.8-4.4,10.3-9.1,9.9c-5.2-0.4-4.4-8.8-4-12.2
			c0.3-2.4,0.8-4.7,1.7-7c0.6-1.5,4.1-7.5,3.7-2.7c-0.5,5.3-4.7,12.5-9.5,14.9C242.5,472.2,247,472.4,248.4,471.7L248.4,471.7z"/>
	</g>
	<g>
		<path d="M286.3,437.5c-1.7,4.1,6.1,1.6,7.5,0.4c5.5-4.7,3.3-12-3.2-14.2c-9.5-3.3-30.3,5.3-24.4,17.9c2.9,6.3,9.4,10.5,13.2,16.1
			c6,8.7,9.8,20.7,8,31.3c-2,11.6-15.1,16.1-24.2,9.4c-3.4-2.5-5.2-6.7-5-10.9c0.3-4.4,8.4-9.8,9-3c0.1,1.6,5.1,0.5,4.9-1.4
			c-1-10.7-19.5-2-18.9,6.5c1.1,14.7,18.5,17.8,29.4,11.8c17.3-9.4,9-32.8,1.3-45.7c-3.7-6.2-11.4-10.2-13.6-17.3
			c-4.3-13.8,27.8-18.3,20.9-1.7C291.9,435.3,287,435.9,286.3,437.5L286.3,437.5z"/>
	</g>
	<g>
		<path d="M311.3,454.1c-2.1-4.6-8.9-1.6-11.9,0.5c-5.3,3.6-9.3,9.9-7.3,16.4c1.5,5.1,7.9,2.2,10.7,0.1c5.5-4.2,7-10.9,10.2-16.7
			c-1.6,0.3-3.2,0.5-4.9,0.8c-1.9,3.8-8.4,12.6-4.6,16.9c3,3.4,8.1-0.4,9.7-3.2c0.6-0.9-4.1-0.5-4.9,0.8c-1.2,1.2-1.2,1.6,0.1,1
			c-0.4-0.4-0.6-0.9-0.7-1.4c-0.6-1.7,0-3.7,0.5-5.3c1.1-3.4,3.1-6.5,4.8-9.6c0.6-1.1-4.1-0.5-4.9,0.8c-1.4,2.6-2.5,5.3-3.7,8
			c-0.5,1-4.9,9.1-6.5,7.9c-2.9-2-1.3-7.7-0.1-10.2c0.9-1.9,6.9-9.5,8.7-5.6C307,456.9,311.8,455.3,311.3,454.1L311.3,454.1z"/>
	</g>
	<g>
		<path d="M316.8,456.9c-1.2,5.6-6.5,14.3-2.5,19.6c0.8,1.1,3.5,0,4.2-0.7c5.7-4.7,9-12.3,11.3-19.1c-1.6,0.4-3.3,0.7-4.9,1.1
			c0.1,2.1,1,5.9,3.3,6.8c2.8,1,5.3-0.3,7.2-2.3c0.8-0.9-0.7-1.3-1.3-1.3c-1.2,0-2.4,0.5-3.2,1.4c1.2,0.1,1.4-0.2,0.6-0.7
			c-0.4-0.5-0.7-1.1-0.9-1.7c-0.5-1.1-0.7-2.3-0.8-3.5c-0.1-1.6-4.5-0.1-4.9,1.1c-2.1,6.3-5.1,13.4-10.4,17.7
			c1.4-0.2,2.8-0.4,4.2-0.7c-3.5-4.7,1.8-13.6,2.8-18.4C322,454.5,317.1,455.3,316.8,456.9L316.8,456.9z"/>
	</g>
	<g>
		<path d="M335.8,462.7c3.5-1.5,10.2-8.3,8.1-12.5c-1-1.9-4.4-1.4-5.9-0.7c-3,1.4-4.6,3.8-6.1,6.7c-1.7,3.3-7.3,16.2-1,18.2
			c7.5,2.3,15.5-7.4,18.7-13c1-1.8-3.8-1-4.5,0.2c-1.3,2.3-9.2,13-11.4,9.3c-1.8-3.1,0-7.7,1.1-10.8c0.7-2.1,1.6-4.1,2.7-6
			c0.4-0.8,1-1.5,1.5-2.1c0.2-0.2,0.5-0.5,0.7-0.7c-1.2,0-1.4,0.3-0.5,0.9c1.2,2.3-3.2,8.3-5.2,9.1
			C330.8,462.4,333.8,463.5,335.8,462.7L335.8,462.7z"/>
	</g>
	<g>
		<path d="M352.6,458.5c2.8-1.7,4-3.8,3.6-7c-0.1-1.3-2.8-0.6-3.4-0.3c-5.7,2.1-2.6,9.8-1.9,14.2c0.6,3.2-2,6.3-4.1,8.5
			c-1.8,1.8-2.2-0.6-2.3-2.3c-3.2,0.2-3.9,0.7-2.3,1.5c0.7,0.5,1.3,1.1,1.8,1.6c4.1,3.8,5.5,7.2,11.5,6.8
			c6.3-0.4,13.2-6.1,14.7-12.2c0.4-1.9-4.5-1-4.9,0.7c-0.9,3.8-7.8,12-11.9,7.7c-2.2-2.3-4.2-4.7-6.7-6.7c-3.7-3-8-0.6-6.7,4
			c1.6,6,9.4,1.1,11.7-1.5c1.8-2.1,4.2-5.1,4.1-8c0-1.7-2.9-11.6-1.1-12.3c-1.1-0.1-2.3-0.2-3.4-0.3c-0.6,1.4-1.2,2.8-1.8,4.2
			C346.7,458.8,351,459.5,352.6,458.5L352.6,458.5z"/>
	</g>
	<g>
		<path d="M361.6,441.9c14.1,3.4,26.8,7.6,40.9,2.2c7.1-2.7,20.2-8.1,16-17.7c-4-9.4-17.2,1.5-21,5c-11.3,10.3-16.9,25.2-23,38.8
			c-2.1,4.7-4.4,9.4-7.2,13.8c-1.4,2.4-3.1,4.6-4.9,6.7c-0.5,0.6-4,4.6-5.1,1.7c-0.6-1.6-0.1-3.6,0.3-5.2
			c1.4-5.1,15.3,8.8,16.7,10.4c4.9,5.2,10.5,8.4,17.3,10.6c10.3,3.4,23,2.3,30.9-5.8c2.2-2.2,5-8.7,0.7-10.4
			c-3.4-1.3-7.6-0.7-9.8,2.4c-1.2,1.6,3.7,1,4.5-0.2c2.3,0.5,3.1,1.7,2.5,3.8c-0.3,1.3-0.8,2.4-1.6,3.5c-2.5,4.1-7.9,5.6-12.3,6
			c-6.4,0.5-13-1.9-18.7-4.7c-9.4-4.6-14-16.4-24.7-18.7c-7-1.5-13.2,3.3-10.2,10.8c2,5.1,11.4-1.4,13.3-3.4
			c14.3-15.1,17.6-37.6,30.2-54c2-2.6,11.3-14.2,15.8-11.5c6.6,3.9-0.4,10.9-4.1,13.1c-5.3,3.2-11.8,5.3-17.9,5.5
			c-8.3,0.3-16.7-3-24.7-4.9C364.2,439.4,359.8,441.5,361.6,441.9L361.6,441.9z"/>
	</g>
	<g>
		<path d="M397,453.1c-2.1,3.7-5.2,6.7-7.3,10.3c-1.5,2.5-3,7.3-0.1,9.5c5.1,3.8,12.8-4.3,14.6-8.5c1.1-2.4-3.9-2.1-4.7-0.3
			c-0.8,1.7-2,3.1-3.3,4.4c-2,2-3.4,2.8-3.3-0.8c0-5.4,6.2-10,8.7-14.4C402.9,451.1,398,451.4,397,453.1L397,453.1z"/>
	</g>
	<g>
		<path d="M408,458.3c-1.8,5.8-3.5,11.6-2.6,17.8c0.2,1.5,4.2-0.1,4.7-0.8c4.1-6.2,7.7-12.7,10.9-19.5c-1.6,0.3-3.2,0.5-4.9,0.8
			c-0.8,3.4-2.2,10.8,3,11.4c4.5,0.5,8.2-3.1,10.7-6.4c1.2-1.6-3.7-0.9-4.5,0.2c-1.5,2-3.6,5.2-4.9,1.3c-0.7-2.3,0-5,0.6-7.3
			c0.4-1.6-4.3-0.4-4.9,0.8c-3.1,6.5-6.5,12.8-10.5,18.9c1.6-0.3,3.1-0.5,4.7-0.8c-0.9-6,0.9-11.6,2.6-17.2
			C413.3,456.1,408.4,456.9,408,458.3L408,458.3z"/>
	</g>
	<g>
		<path d="M431.9,461.5c4.2-1.7,7.3-5.7,6.6-10.4c-0.1-0.6-1.1-0.7-1.5-0.7c-8.1,0.3-13.9,12.3-12.2,19.5c0.9,4.1,6.1,3.5,8.9,2
			c4-2.2,7-6.3,9.4-10c1.2-1.9-3.7-1.3-4.6,0c-1.3,2-2.7,3.9-4.3,5.7c-0.9,1-1.9,1.9-3.1,2.7c-1,0.7-1.7-2.4-1.8-2.9
			c-0.3-2.6,0.7-5.4,1.7-7.8c0.6-1.4,1.3-2.7,2.1-3.9c0.4-0.7,0.9-1.3,1.5-1.9c0.5-0.5,1.4-0.7,0.4-0.6c-0.5-0.2-1-0.5-1.5-0.7
			c0.4,2.8-0.9,6-3.7,7.1C426.8,460.8,429.8,462.3,431.9,461.5L431.9,461.5z"/>
	</g>
	<g>
		<path d="M443,454.7c3.6,0,10.5-0.2,9.2-5.5c-0.2-0.7-1.6-0.6-2.1-0.5c-3.7,0.6-4.6,2.5-4,6.1c0.6,3,2,5.6,1.4,8.7
			c-0.4,2.3-2.5,6.1-5.4,4.1c-1.5-1.1-1.3-3.4-2.7-4.3c1.7,1.1,2.2,4.2,3.4,5.8c1.5,2,3.6,2.6,6.1,2.8c5.3,0.5,10.7-2.8,14.7-5.9
			c8.4-6.6,18.4-25,3.2-30.2c-7.5-2.6-15.5,9-5.8,9.1c1.6,0,5.3-2.4,2-2.5c-3.4,0-1.9-6.8,3.5-2.4c2.7,2.2,3.7,6,3.4,9.4
			c-0.5,6.5-6.6,13.3-11.5,17.1c-4.4,3.5-9.5,4-12-1.1c-0.8-1.7-1.5-3.4-3.2-4.5c-1.9-1.3-5.2,0-6.8,1.3c-5.4,4.3,4.1,10.1,8.6,8.2
			c4.2-1.8,6.9-4.8,7.7-9.3c0.2-1.3-0.4-2.9-0.7-4.1c-0.3-1.2-0.7-2.4-1-3.6c-0.5-2,0.7-2.8-1.7-2.3c-0.7-0.2-1.4-0.3-2.1-0.5
			c-0.1,1.6-0.8,2.2-2.3,1.6C443.4,452.3,439.7,454.7,443,454.7L443,454.7z"/>
	</g>
</g>
<g>
	<path d="M373.7,290.2c8.4,0.7,16.8,1.5,25.1,2.4c5.8,0.7,11.7,1.4,17.4,2.6c5.7,1.2,10.8,4.8,15.8,7.6c0.9,0.5,3.7-0.9,3-1.2
		c-4.7-2.6-9.5-6-14.8-7.4c-5.1-1.4-10.5-1.9-15.7-2.6c-9.6-1.2-19.3-2.1-28.9-2.9C374.9,288.6,372,290.1,373.7,290.2L373.7,290.2z"
		/>
</g>
<g>
	<path d="M183.9,291.9c9.2-1.2,18.4-2.2,27.7-2.8c5-0.3,10.7-1,15.7,0.2c5.3,1.3,10.9,6.7,15.2,10c0.8,0.6,3.7-0.7,3-1.2
		c-4.7-3.5-10-8.4-15.6-10.2c-4.4-1.4-10-0.7-14.5-0.5c-10.3,0.5-20.7,1.7-31,3.1C183,290.6,181.6,292.2,183.9,291.9L183.9,291.9z"
		/>
</g>
<g>
	<path d="M272,290.8c8.8-1.3,17.8-1.6,26.7-1.7c9.8-0.1,19.6,0.5,29.4,1.4c9.2,0.9,18.4,1.1,23.2,10.2c0.7,1.3,3.9,0.3,3.3-0.9
		c-2.4-4.5-6.3-9-11.6-9.7c-12-1.8-24-2.8-36.1-3.1c-11.4-0.3-23.2-0.1-34.5,1.6C270.6,288.9,269.8,291.2,272,290.8L272,290.8z"/>
</g>
<g>
	<path d="M455.9,292.5c4.2-0.8,8.7-2,13.1-1.4c4.5,0.6,7.1,4.8,8.9,8.6c0.8,1.7,5.6,0,4.9-1.4c-2.2-4.6-4.9-8.3-9.9-9.7
		c-5.1-1.4-11.2,0.4-16.2,1.3C454.3,290.2,452.5,293.1,455.9,292.5L455.9,292.5z"/>
</g>
<g>
	<path d="M363,395.8c7.6-0.3,15.1-0.7,22.7-1.2c8.1-0.5,18.2-0.2,25.8-3.4c2.1-0.9,0.1-1.7-1.3-1.1c-7.5,3.2-17.8,2.5-25.8,3
		c-6.7,0.4-13.4,0.8-20.1,1C363.2,394.2,360.8,395.9,363,395.8L363,395.8z"/>
</g>
<g>
	<path d="M156.9,396.5c9.1-0.1,20.6,0.5,29.1-3c9.7-4.1,19.1-9.2,28.6-13.8c2-1-1.1-1.1-2-0.7c-8.4,4.1-16.9,8.2-25.3,12.3
		c-8.5,4.1-19.7,3.5-29.1,3.6C157.2,394.9,154.7,396.5,156.9,396.5L156.9,396.5z"/>
</g>
<g>
	<path d="M244.8,393.8c15.9,2,32.1,2.6,48.1,2.7c12.3,0,25.4,0.3,37.5-2.1c5.7-1.1,10.9-7.6,14.1-12c1.2-1.7-1.9-1.9-2.7-0.8
		c-1.3,1.8-2.7,3.4-4.2,5c-4.5,4.9-8.8,5.9-15.2,6.5c-12.8,1.1-25.7,1.2-38.5,0.9c-12.6-0.3-25.3-1-37.8-2.5
		C244.5,391.4,242.6,393.5,244.8,393.8L244.8,393.8z"/>
</g>
<g>
	<path d="M475.9,379.7c8.8-7.2,17.8-13.2,23.2-23.5c1.1-2-3.8-1.4-4.6,0c-5.3,10.1-14,15.8-22.6,22.8
		C469.8,380.7,474.8,380.6,475.9,379.7L475.9,379.7z"/>
</g>
<g>
	<path d="M134.3,305.1c13-2,25.9,2.1,38.7,3.9c1.5,0.2,5.8-2.3,3-2.7c-13.6-1.9-27.2-6-41-3.9C132.6,302.8,130.9,305.6,134.3,305.1
		L134.3,305.1z"/>
</g>
<g>
	<path d="M546.1,300.8c-9.9,9.5-20,18.2-33.6,21.8c-3,0.8-2.2,3.2,0.7,2.5c14.8-4,25.9-13.1,36.8-23.5
		C552.1,299.5,547.3,299.7,546.1,300.8L546.1,300.8z"/>
</g>
</svg>
