<?xml version="1.0" encoding="UTF-8"?>
<svg width="132px" height="104px" viewBox="0 0 132 104" version="1.1" xmlns="http://www.w3.org/2000/svg" xmlns:xlink="http://www.w3.org/1999/xlink">
    <!-- Generator: Sketch 48.1 (47250) - http://www.bohemiancoding.com/sketch -->
    <title>Group</title>
    <desc>Created with Sketch.</desc>
    <defs>
        <polygon id="path-1" points="3.65479443e-15 104 3.65479443e-15 0 132 0 132 104"></polygon>
    </defs>
    <g id="Desktop-HD-Copy" stroke="none" stroke-width="1" fill="none" fill-rule="evenodd" transform="translate(-1983.000000, -308.000000)">
        <g id="Group" transform="translate(1983.000000, 308.000000)">
            <mask id="mask-2" fill="white">
                <use xlink:href="#path-1"></use>
            </mask>
            <g id="Clip-2"></g>
            <path d="M132,87.5501819 C128.794808,88.59751 126.230141,87.7519134 123.482834,85.9498646 C126.266154,89.170479 128.800596,92.1029976 131.335039,95.0361607 C131.190342,95.1856869 131.045645,95.3352132 130.900949,95.4853839 C127.244947,95.0116693 124.75938,92.4342755 121.807568,90.0914832 C123.763867,93.6627108 126.174834,96.6925503 127.011503,100.979184 C122.857744,98.7588481 120.404332,95.4106208 117.738055,91.626705 C119.358658,95.8276185 121.31367,99.394979 121.48602,103.981309 C117.747702,101.177693 115.918093,97.5220342 113.825458,93.7149161 C114.141861,97.2113806 115.604905,100.357232 115.105862,103.684835 C114.902001,103.78989 114.697496,103.894945 114.493635,104 C112.975285,101.931124 111.458221,99.861604 110.009968,97.8874711 C109.844049,98.5906311 109.635043,99.4774762 109.330858,100.765206 C107.721832,99.6173348 106.459434,98.7163104 105.136585,97.7721039 C104.88835,97.8894046 104.413745,98.3076914 104.164223,98.2007028 C101.574475,97.0863457 99.0213829,95.8875579 96.0522077,94.5257091 C94.169222,95.1334817 93.233517,94.5740473 92.6347944,91.826503 C91.1736798,92.6553423 89.6823397,93.5524996 88.3112586,91.8780637 C85.5375846,93.1522592 85.1446528,93.0871637 84.2874055,91.4707337 C83.1909265,91.4578435 81.6674316,91.8335926 81.3330215,91.3631006 C80.3432965,89.9664483 77.1020915,92.3904489 77.5992049,89.2832682 C75.7940338,88.1998475 73.5386954,88.4028681 72.0981599,86.5034983 C70.0826963,86.7277877 70.0826963,86.7277877 69.5431386,85.1236033 C68.3778483,85.1377825 66.7713939,85.841587 66.8324881,83.6773238 C64.1430597,83.691503 64.1430597,83.691503 64.5076952,81.6271388 C63.6163639,81.6580753 62.7224601,81.6890117 61.4877154,81.7321939 C61.7738932,80.7100017 61.9912597,79.9359457 62.2208451,79.1141959 C61.2922142,79.22054 60.2677619,79.3378408 59.1449159,79.4667427 C59.1339833,78.7964527 59.1262661,78.3259607 59.1166197,77.7426795 C58.5346176,77.7143211 57.9429691,77.6853182 57.1911896,77.6492257 C57.2947281,77.0195398 57.3873339,76.459461 57.4310645,76.1919895 C56.8059749,75.7131189 56.2902118,75.3193235 55.5358599,74.7418429 C55.4503281,74.8546321 55.0291001,75.2342482 54.8194507,75.7079628 C52.8155629,80.2491773 50.8464023,84.8058601 48.8675953,89.3580313 C48.8187199,89.4708204 48.7974978,89.6100345 48.7171107,89.6912427 C47.9891258,90.4253391 47.2296292,91.7465838 46.5215803,91.7208034 C45.7125652,91.6905115 44.9466376,90.4614317 43.9736331,89.5823206 C42.0404858,90.3222176 40.7022026,90.0366999 39.7992955,88.5569059 C38.486093,88.7128772 37.2642102,88.8578918 36.0101726,89.0067735 C35.7973078,88.0915699 35.6493956,87.456728 35.4699718,86.6846055 C34.9336295,86.8934266 34.4577383,87.2015022 33.9593388,87.2421063 C33.2750844,87.2981786 32.1342317,87.3858319 31.955451,87.0500425 C31.1560824,85.5470461 29.9026878,85.0133922 28.3907686,84.666646 C28.2332101,84.6305535 28.0756515,83.5194189 28.2962335,83.1140224 C28.8396498,82.1169661 29.603005,81.2397886 30.4062322,80.1396107 C28.7611921,80.7499613 27.0479837,82.2961398 25.7534311,80.595279 C25.1887926,79.8540929 25.9244947,78.1177841 26.0698344,76.830054 C25.4698256,76.7701146 24.389424,76.663126 22.865286,76.5129553 C23.0742922,75.2664737 23.2646487,74.1289143 23.4955203,72.7515973 C23.239568,72.6110942 22.6762157,72.3010851 21.8665575,71.8563735 C22.3591692,70.8051784 22.8472793,69.7636509 23.3437495,68.7040771 C21.5244303,67.3415839 21.6762011,66.5546377 24.2646633,64.4748053 C23.3829784,63.649833 22.4916471,62.8164821 21.6286119,62.0095561 C22.350809,60.4582215 23.5495403,60.4163284 24.8138675,60.4227735 C27.8081235,60.4382417 30.8023795,60.4163284 33.7966354,60.386681 C34.3657756,60.3808804 34.9336295,60.2706692 35.6204563,59.8897641 C34.1123957,59.7325037 32.5027259,59.8704288 32.670574,57.6198013 C30.451892,58.2469091 29.9052602,57.0996821 30.0030109,55.3530611 C29.2120025,55.3504831 28.2923749,55.6140875 27.804908,55.2673413 C27.3495959,54.943153 27.3515252,53.9718771 27.1103641,53.1391707 C25.0035809,53.9158047 24.7823558,52.5217305 24.9180491,50.7976674 C23.741183,50.9123901 22.3784621,51.4924487 22.5836098,49.397148 C22.6125491,49.1006736 21.5816659,48.7004332 21.288414,48.1461549 C20.7925869,47.5345153 20.1681404,46.9841042 19.8395183,46.2919009 C19.5424078,45.6667266 19.5681317,44.88687 19.4292229,44.0361173 C18.4536459,43.4470356 17.1719552,42.7825462 16.0433213,41.9169698 C15.7436385,41.6868799 15.914059,40.8406388 15.8613251,40.183239 C14.1686958,39.1861827 14.1706251,38.9760726 16.094769,36.4599072 C15.4735381,36.5778524 14.9056841,36.8066533 14.3693418,36.7473584 C13.9686929,36.7035318 13.2792938,36.277511 13.2863678,36.0390424 C13.3268829,34.6894393 13.5391046,33.3443478 13.695377,31.9766985 C13.1410281,31.8851781 12.2098248,31.9766985 11.6381122,31.5655014 C11.1043424,31.1826627 10.9519286,30.2655256 10.4310206,29.1569691 C9.6702378,28.8418039 8.04834914,28.5027918 8.86765372,26.5383266 C7.17631067,25.1983912 5.50940528,23.8777911 3.40262208,22.2085112 C5.39300487,21.6484324 7.23547553,21.1296022 9.07408761,20.6114165 C6.41617095,20.1879737 3.7383183,19.7619529 1.06046566,19.335932 C1.02445227,19.1561139 0.98908198,18.9769402 0.953068592,18.7977665 C2.16080329,18.4587545 3.35310367,18.0340227 4.58077435,17.8058663 C5.83738435,17.5719093 7.12807846,17.5016578 8.40655374,17.414649 C9.72747336,17.3237731 11.0522516,17.2986372 12.3744574,17.0066744 C8.24963826,16.4530407 4.12481913,15.8994069 0,15.3457732 C3.88365805,13.3213686 7.99947383,13.8820919 12.1223637,13.7074298 C8.75639808,12.843787 5.39043248,11.9801441 2.02382379,11.1165013 C4.32546515,9.9054678 6.71135211,10.1071993 9.06637045,10.3959396 C11.4033821,10.6821018 13.7178854,11.1564609 15.8819041,11.5212533 C11.8921352,9.65604259 7.75445417,7.72122482 3.61677312,5.78705155 C3.6875137,5.58016398 3.75825429,5.37456542 3.82899487,5.16767784 C9.0078487,4.97561399 13.575118,7.44988628 18.4189187,8.88005305 C14.8806033,6.05581205 10.9152721,3.76715852 8.17053742,0 C13.9121004,1.56100221 18.5700463,5.17476745 23.7193177,7.95324827 C21.5205718,5.72646765 19.3211827,3.49968704 17.1217937,1.27355094 L17.4356246,0.815304624 C17.8478493,0.933894387 18.3153802,0.964186338 18.6620091,1.18525312 C21.2858417,2.85968902 23.988775,4.43422594 26.4743419,6.29750315 C33.3734781,11.4709816 40.2327424,16.7005323 46.9813941,22.0673636 C48.5955656,23.3512267 49.9743638,25.1068708 51.018109,26.9044081 C54.6490302,33.154862 58.9944314,38.8175232 64.3398471,43.6597237 C67.3649717,46.4001785 73.3843523,46.7888178 77.1213844,44.9964366 C78.5072568,44.3313027 80.1304316,44.016782 81.6764349,43.8679003 C83.8173022,43.6616573 84.4989842,44.3390368 84.9658721,46.3015685 C84.2796884,46.9331879 83.5574913,47.3669429 83.1652026,48.0043628 C82.0809424,49.7683856 81.2217659,51.6742004 80.0969906,53.4092202 C79.5156316,54.3063775 79.6423216,54.8799911 80.3690203,55.4155785 C81.8417106,56.5002882 83.2938219,57.6359141 84.8661921,58.5582073 C90.5698125,61.900634 96.3448165,65.0593754 102.584136,67.3899221 C105.689648,68.5500394 108.409945,70.7271927 111.337319,72.3861604 C115.1676,74.5562242 119.017817,76.6927734 122.884111,78.7970972 C124.929157,79.9101653 127.028866,80.9233343 129.103495,81.9816191 L129.508002,81.5620433 C127.462313,81.7360609 125.416624,81.909434 123.400517,82.0795845 C126.073225,83.7798008 128.918926,85.5902282 132,87.5501819" id="Fill-1" fill="#000000" mask="url(#mask-2)"></path>
        </g>
    </g>
</svg>