<?xml version="1.0" encoding="UTF-8"?>
<svg width="152px" height="88px" viewBox="0 0 152 88" version="1.1" xmlns="http://www.w3.org/2000/svg" xmlns:xlink="http://www.w3.org/1999/xlink">
    <!-- Generator: Sketch 48.1 (47250) - http://www.bohemiancoding.com/sketch -->
    <title>Page 1</title>
    <desc>Created with Sketch.</desc>
    <defs>
        <polygon id="path-1" points="151.419122 87.7047451 0.000298039216 87.7047451 0.000298039216 0.000149019608 151.419122 0.000149019608 151.419122 87.7047451"></polygon>
    </defs>
    <g id="Desktop-HD-Copy" stroke="none" stroke-width="1" fill="none" fill-rule="evenodd" transform="translate(-2190.000000, -380.000000)">
        <g id="Page-1" transform="translate(2190.000000, 380.000000)">
            <mask id="mask-2" fill="white">
                <use xlink:href="#path-1"></use>
            </mask>
            <g id="Clip-2"></g>
            <path d="M143.573239,3.1616 C143.720769,3.02003137 143.868298,2.87846275 144.012847,2.74061961 C144.282573,2.69144314 144.555278,2.63779608 145.258651,2.50069804 C141.06971,7.60983529 136.032847,11.1423451 131.124886,14.8179137 C131.233671,14.9699137 131.3432,15.1219137 131.451239,15.2739137 C136.96422,11.6862667 142.47571,8.09861961 147.98869,4.51171765 C144.582102,9.58732549 138.914141,11.7771686 134.224494,15.2090902 C134.284847,15.3156392 134.3452,15.4221882 134.405553,15.5287373 C140.016886,13.0006196 145.627475,10.472502 151.238808,7.94438431 C151.298416,8.05912941 151.358769,8.17461961 151.419122,8.28936471 C147.366533,11.6572078 142.335631,13.3537961 137.869514,16.0920314 C141.787239,14.9654431 145.70422,13.8388549 149.6212,12.7122667 C149.680808,12.8806588 149.740416,13.0497961 149.800024,13.2181882 C146.825592,14.5236 143.851906,15.8282667 140.87822,17.1321882 C140.910259,17.2528941 140.943043,17.3736 140.975827,17.4935608 C142.672416,17.1716784 144.369004,16.849051 146.066337,16.5264235 C146.140102,16.6858745 146.214612,16.8453255 146.289122,17.0047765 C145.389043,17.6217176 144.452455,18.1939529 143.606769,18.878698 C143.264769,19.1558745 143.153749,19.7012863 142.881788,20.0857569 C142.495082,20.6334039 142.097945,21.1847765 141.630769,21.6616392 C141.181475,22.1183843 140.636808,22.4827373 139.998259,22.9968549 C141.359553,23.5586588 141.026494,24.1286588 140.130886,24.753051 C139.195043,25.4050118 137.976808,25.8692078 138.214494,27.4137961 C138.245043,27.6119922 137.91869,27.9696392 137.676533,28.0896 C136.097671,28.8712078 134.944259,30.1252078 133.830337,31.4350902 C132.829671,32.6123451 131.84018,33.8000314 130.798533,34.9407765 C130.516886,35.2499922 130.081749,35.4392471 129.687592,35.6217961 C128.923867,35.9764627 128.119161,36.2454431 127.367357,36.6232078 C124.050925,38.2922275 120.754612,40.0029725 117.434455,41.6652863 C115.927122,42.4193255 114.369867,43.0712863 112.864024,43.8275608 C112.487004,44.0175608 112.273161,44.5197569 111.900612,44.7283843 C111.287396,45.0718745 110.610102,45.3058353 109.95069,45.5606588 C109.604965,45.6940314 109.239867,45.7789725 108.881475,45.8788157 C108.134141,46.086698 107.386808,46.2893647 106.579122,46.2983059 C105.664886,47.1596392 104.78418,48.1565804 103.269396,47.386149 C101.28371,50.2734039 97.8890431,49.1103059 95.2752392,50.5684627 C95.5792392,52.1659529 93.8282588,52.234502 92.5064549,53.2038745 C93.0950824,53.5168157 93.4862588,53.8945804 93.8960627,53.9161882 C99.3360235,54.1985804 104.77971,54.4221098 110.220416,54.6858745 C111.083239,54.7283451 111.939357,54.8989725 112.798455,55.0099922 C112.909475,55.2223451 113.020494,55.434698 113.131514,55.647051 C112.49818,56.1008157 111.864847,56.5553255 111.393945,56.8936 C111.851435,57.6811686 112.76269,58.5656 112.595788,59.1311294 C112.369278,59.8948549 111.31422,60.412698 110.612337,61.0385804 C112.370769,63.8103451 112.370769,63.8103451 110.309827,65.5292863 C111.271004,68.0387765 111.205435,68.1132863 107.513475,68.8695608 C107.339122,69.6869333 107.380102,70.8880314 106.98669,71.0519529 C106.111945,71.4185412 105.002494,71.4006588 104.020455,71.2821882 C103.345396,71.1994824 102.722494,70.6846196 101.883514,70.2673647 C102.204651,71.3134824 102.498965,72.0958353 102.681514,72.9035216 C102.897592,73.8617176 102.401357,74.229051 101.465514,74.3445412 C100.867945,74.4183059 100.316573,74.8184235 99.7234745,75.0032078 C99.316651,75.1298745 98.8740627,75.1604235 98.4441412,75.1917176 C98.2153961,75.2088549 97.9762196,75.0896392 97.7489647,75.110502 C95.0479843,75.3616 95.0487294,75.3653255 93.2940235,74.1277176 C90.1936706,77.7533647 88.3719059,73.4832078 85.7692784,72.9281098 C86.358651,73.8907765 86.9465333,74.7774431 87.4420235,75.7132863 C87.5604941,75.9368157 87.4748078,76.5127765 87.3079059,76.6021882 C86.6462588,76.9590902 85.8743373,77.4873647 85.2171608,77.4001882 C83.9192,77.2265804 82.9684549,76.3816392 82.6294353,75.0084235 C82.4886118,74.4384235 82.3015922,73.8788549 82.1376706,73.3230118 C78.9128863,74.0442667 77.8235529,73.1993255 77.6782588,69.9618745 C77.664102,69.6616 77.6514353,69.3613255 77.6521804,69.061051 C77.6581412,67.7139137 78.0515529,66.2028549 77.5664941,65.0665804 C77.1082588,63.9936392 75.7275922,63.3133647 74.4825333,62.2247765 C73.9788471,62.7798745 73.5072,63.4079922 72.9215529,63.9027373 C72.564651,64.2037569 72.032651,64.296149 71.5811216,64.4846588 C69.3339059,65.4227373 67.0770039,66.3369725 64.8439451,67.3056 C62.5006118,68.3226588 60.1773961,69.3844235 57.8549255,70.4461882 C57.5814745,70.5713647 57.3355922,70.794149 57.1299451,71.0191686 C56.9712392,71.1950118 56.9473961,71.5653255 56.772298,71.6443059 C54.7739451,72.5406588 52.7636706,73.4131686 50.7422196,74.2573647 C50.0388471,74.5516784 49.3071608,74.7997961 48.5672784,74.9823451 C46.8416314,75.4077961 45.1040627,75.7885412 43.3679843,76.1700314 C43.0803765,76.2333647 42.5789255,76.1052078 42.5059059,76.2423059 C41.2042196,78.6698353 38.2096706,78.0171294 36.4087686,79.6012078 C35.9132784,80.0370902 34.7911608,79.7494824 33.9596314,79.8210118 C33.5520627,79.8567765 33.1228863,79.8865804 32.7518275,80.0378353 C31.3607294,80.6018745 30.1492,81.8111686 28.4146118,81.0638353 C28.1888471,80.9662275 27.7306118,81.3760314 27.3938275,81.5742275 C26.2158275,82.2671686 25.0445333,82.9705412 23.5044157,83.8877569 C23.5684941,82.7164627 23.6064941,82.0242667 23.658651,81.0742667 C21.4911608,82.9154039 19.5077098,84.6008157 17.5242588,86.2862275 C17.3990824,86.1908549 17.2739059,86.0954824 17.1487294,86.0001098 C18.2589255,83.9831294 19.3691216,81.966149 20.4793176,79.9484235 C20.3630824,79.8783843 20.246102,79.8076 20.1298667,79.7375608 C16.9944941,82.3930902 13.8583765,85.0493647 10.7230039,87.7048941 C10.5516314,87.5350118 10.3795137,87.3658745 10.2081412,87.1967373 C12.6669647,84.4212471 15.124298,81.6457569 17.5823765,78.8710118 C17.5190431,78.804698 17.4549647,78.7383843 17.3916314,78.6720706 C13.3777882,81.4974824 9.3632,84.3228941 5.34935686,87.1483059 C5.21896471,86.9754431 5.08931765,86.8025804 4.95892549,86.6289725 C8.44896471,83.767051 11.9404941,80.9043843 15.4312784,78.0424627 C15.3448471,77.9292078 15.2584157,77.8152078 15.1727294,77.702698 C10.8325333,80.4349725 6.73747451,83.6128157 1.74233725,85.1678353 C6.05049412,82.4035216 10.358651,79.6399529 14.6668078,76.8756392 C14.599749,76.7631294 14.5326902,76.6513647 14.4663765,76.5388549 C9.74916078,78.8218353 5.0319451,81.1048157 0.313239216,83.3877961 C0.20892549,83.1933255 0.103866667,82.9988549 0.000298039216,82.8043843 C9.31625882,79.1034824 17.5920627,73.7074824 25.3954745,67.4903843 C24.8739059,67.6140706 24.3553176,67.7548941 23.8300235,67.8577176 C23.3486902,67.9516 22.860651,68.004502 22.260102,67.7548941 C23.1653961,67.3525412 24.1094353,67.0172471 24.9715137,66.5366588 C28.3363765,64.6612471 31.6632392,62.7202667 35.028102,60.8470902 C36.1166902,60.2420706 37.2447686,59.6743059 38.4138275,59.2555608 C43.4976314,57.4352863 48.5903765,55.6433255 53.7032392,53.9079922 C56.3043765,53.0257961 58.9792784,52.3559529 61.5744549,51.4588549 C63.6778667,50.7308941 63.802298,50.3158745 63.9393961,48.0716392 C63.9744157,47.4956784 64.4460627,46.8183843 64.9177098,46.4339137 C65.3871216,46.0509333 66.1106118,45.7931294 66.720102,45.7983451 C70.1654353,45.8259137 72.9766902,43.540698 76.3192,43.2456392 C76.3668863,43.2419137 76.410102,43.1942275 76.4577882,43.190502 C81.1489255,42.8082667 84.7999059,40.2220314 88.6379059,37.8123843 C91.7032392,35.8885412 95.3355922,34.8930902 98.5223765,33.136149 C101.4752,31.5081098 104.223122,29.488149 106.963592,27.5069333 C109.009631,26.0271686 110.899945,24.3328157 112.864769,22.7301098 C112.961631,22.9849333 113.127788,23.4215608 113.258925,23.7687765 C120.329906,21.3852078 123.89371,15.9087373 126.054494,9.20807059 C126.450886,7.97940392 126.880063,6.76116863 127.347239,5.37975686 C128.382925,8.00771765 127.273475,10.8852863 122.508573,18.1529725 C123.013749,17.8847373 123.298376,17.7886196 123.514455,17.6097961 C128.635514,13.3739137 132.754416,8.33928627 135.696063,2.35614902 C136.103631,1.5283451 136.679592,0.783247059 137.178063,0.000149019608 C137.210102,2.80991373 136.31822,5.33952157 134.540416,7.46156078 C132.365475,10.0567373 130.022141,12.5088549 127.753318,15.0257961 C127.523827,15.2798745 127.312965,15.5503451 127.093161,15.8133647 C133.188063,12.304698 138.263671,7.58450196 143.573239,3.1616" id="Fill-1" fill="#000000" mask="url(#mask-2)"></path>
        </g>
    </g>
</svg>